# Blender v2.79 (sub 0) OBJ File: 'genius1.blend'
# www.blender.org
mtllib genius_azul.mtl
o Azul_Plane.007
v 1.264740 0.000000 0.130063
v 0.071568 0.000000 0.655341
v 1.215714 0.000000 0.430262
v 0.071568 0.000000 1.323236
v 1.094287 0.000000 0.130063
v 0.923834 0.000000 0.130063
v 0.753381 0.000000 0.130063
v 0.582927 0.000000 0.130063
v 0.477687 0.000000 0.426164
v 0.242021 0.000000 0.609817
v 0.242021 0.000000 1.323236
v 0.412475 0.000000 1.270708
v 0.582928 0.000000 1.200671
v 0.753381 0.000000 1.092113
v 0.923834 0.000000 0.948537
v 1.094287 0.000000 0.710411
v 1.264740 0.000000 0.130063
v 0.071568 0.000000 0.655341
v 1.215714 0.000000 0.430262
v 0.071568 0.000000 1.323236
v 1.094287 0.000000 0.130063
v 0.923834 0.000000 0.130063
v 0.753381 0.000000 0.130063
v 0.582927 0.000000 0.130063
v 0.477687 0.000000 0.426164
v 0.242021 0.000000 0.609817
v 0.242021 0.000000 1.323236
v 0.412475 0.000000 1.270708
v 0.582928 0.000000 1.200671
v 0.753381 0.000000 1.092113
v 0.923834 0.000000 0.948537
v 1.094287 0.000000 0.710411
v 1.264740 0.054566 0.130063
v 0.071568 0.054566 0.655341
v 1.215714 0.054566 0.430262
v 0.071568 0.054566 1.323236
v 1.094287 0.054566 0.130063
v 0.923834 0.054566 0.130063
v 0.753381 0.054566 0.130063
v 0.582927 0.054566 0.130063
v 0.477687 0.054566 0.426164
v 0.242021 0.054566 0.609817
v 0.242021 0.054566 1.323236
v 0.412475 0.054566 1.270708
v 0.582928 0.054566 1.200671
v 0.753381 0.054566 1.092113
v 0.923834 0.054566 0.948537
v 1.094287 0.054566 0.710411
vt 0.000248 0.729146
vt 0.565104 0.729341
vt 0.565057 0.864299
vt 0.036245 0.864117
vt 0.000248 0.864794
vt 0.237934 0.903611
vt 0.459744 0.999752
vt 0.000248 0.999752
vt 0.000248 0.593693
vt 0.459744 0.593693
vt 0.648283 0.728651
vt 0.000248 0.728651
vt 0.000248 0.458240
vt 0.648282 0.458240
vt 0.761960 0.593198
vt 0.000248 0.593198
vt 0.000248 0.322787
vt 0.761961 0.322787
vt 0.847912 0.457745
vt 0.000248 0.457744
vt 0.000248 0.187333
vt 0.847912 0.187333
vt 0.903364 0.322291
vt 0.234689 0.270659
vt 0.000248 0.000248
vt 0.668923 0.051880
vt 0.710513 0.186838
vt 0.145657 0.186838
vt 0.565599 0.729146
vt 0.814408 0.729146
vt 0.814408 0.772349
vt 0.565599 0.772349
vt 0.931432 0.180566
vt 0.705410 0.180566
vt 0.705410 0.136038
vt 0.931432 0.136038
vt 0.867567 0.730985
vt 0.632800 0.730985
vt 0.632800 0.686457
vt 0.867567 0.686457
vt 0.827400 0.365615
vt 0.958958 0.365615
vt 0.958958 0.410143
vt 0.827400 0.410143
vt 0.877419 0.044891
vt 0.705410 0.044891
vt 0.705410 0.000364
vt 0.877419 0.000364
vt 0.827400 0.320361
vt 0.958958 0.320361
vt 0.958958 0.364888
vt 0.827400 0.364888
vt 0.861383 0.090146
vt 0.705410 0.090146
vt 0.705410 0.045618
vt 0.861383 0.045618
vt 0.571429 1.000000
vt 0.428571 1.000000
vt 0.428571 1.000000
vt 0.571429 1.000000
vt 0.285714 0.000000
vt 0.428571 0.000000
vt 0.428571 0.000000
vt 0.285714 0.000000
vt 0.285714 1.000000
vt 0.285714 1.000000
vt 0.571429 0.000000
vt 0.571429 0.000000
vt 0.000000 1.000000
vt 0.000000 0.000000
vt 0.000000 0.000000
vt 0.000000 1.000000
vt 0.142857 1.000000
vt 0.142857 1.000000
vt 0.714286 0.000000
vt 0.714286 0.000000
vt 0.857143 0.000000
vt 1.000000 0.000000
vt 1.000000 0.000000
vt 0.857143 0.000000
vt 1.000000 1.000000
vt 1.000000 1.000000
vt 0.857143 1.000000
vt 0.857143 1.000000
vt 0.714286 1.000000
vt 0.714286 1.000000
vt 0.142857 0.000000
vt 0.142857 0.000000
vt 0.000364 0.874865
vt 0.035500 0.735770
vt 0.550989 0.735770
vt 0.550989 0.874865
vt 0.551716 0.874865
vt 0.551716 0.735770
vt 0.999636 0.735770
vt 0.783414 0.834858
vt 0.000364 0.735043
vt 0.000364 0.595948
vt 0.632072 0.595947
vt 0.448284 0.735043
vt 0.000364 0.595220
vt 0.000364 0.456125
vt 0.742886 0.456125
vt 0.632073 0.595220
vt 0.000364 0.455398
vt 0.000364 0.316303
vt 0.826673 0.316303
vt 0.742887 0.455398
vt 0.000364 0.248315
vt 0.234473 0.181293
vt 0.888243 0.181293
vt 0.824220 0.315575
vt 0.000364 0.180566
vt 0.155692 0.000364
vt 0.704683 0.045183
vt 0.654133 0.180566
vt 0.648778 0.593693
vt 0.788466 0.593693
vt 0.788466 0.636896
vt 0.648778 0.636896
vt 0.565599 0.772845
vt 0.802157 0.772845
vt 0.802157 0.816048
vt 0.565599 0.816048
vt 0.000364 0.875592
vt 0.515853 0.875592
vt 0.515852 0.920120
vt 0.000364 0.920120
vt 0.879464 0.920120
vt 0.747905 0.920120
vt 0.747905 0.875592
vt 0.879464 0.875592
vt 0.868459 0.685730
vt 0.632800 0.685730
vt 0.632800 0.641202
vt 0.868459 0.641202
vt 0.881276 0.549965
vt 0.743613 0.549965
vt 0.743613 0.505438
vt 0.881276 0.505438
vt 0.747905 0.920847
vt 0.879464 0.920847
vt 0.879464 0.965375
vt 0.747905 0.965375
vt 0.885844 0.595220
vt 0.743613 0.595220
vt 0.743613 0.550693
vt 0.885844 0.550693
vt 0.827400 0.410870
vt 0.958958 0.410870
vt 0.958958 0.455398
vt 0.827400 0.455398
vn 0.0000 -1.0000 0.0000
vn -0.9423 0.0000 -0.3349
vn 0.8131 0.0000 0.5821
vn 0.9869 0.0000 0.1612
vn -0.0000 0.0000 -1.0000
vn 0.6442 0.0000 0.7648
vn 0.5372 0.0000 0.8435
vn 0.0000 0.0000 1.0000
vn 0.0000 1.0000 0.0000
vn -0.2580 0.0000 -0.9661
vn -0.6147 0.0000 -0.7888
vn -1.0000 0.0000 0.0000
vn 0.9175 0.0000 0.3977
vn 0.2945 0.0000 0.9557
vn 0.3801 0.0000 0.9250
usemtl None
s off
f 10/1/1 11/2/1 4/3/1 2/4/1
f 1/5/1 3/6/1 16/7/1 5/8/1
f 5/9/1 16/10/1 15/11/1 6/12/1
f 6/13/1 15/14/1 14/15/1 7/16/1
f 7/17/1 14/18/1 13/19/1 8/20/1
f 8/21/1 13/22/1 12/23/1 9/24/1
f 9/25/1 12/26/1 11/27/1 10/28/1
f 24/29/2 25/30/2 41/31/2 40/32/2
f 31/33/3 32/34/3 48/35/3 47/36/3
f 19/37/4 17/38/4 33/39/4 35/40/4
f 23/41/5 24/42/5 40/43/5 39/44/5
f 30/45/6 31/46/6 47/47/6 46/48/6
f 22/49/5 23/50/5 39/51/5 38/52/5
f 29/53/7 30/54/7 46/55/7 45/56/7
f 13/57/8 14/58/8 30/59/8 29/60/8
f 6/61/8 7/62/8 23/63/8 22/64/8
f 14/58/8 15/65/8 31/66/8 30/59/8
f 7/62/8 8/67/8 24/68/8 23/63/8
f 3/69/8 1/70/8 17/71/8 19/72/8
f 15/65/8 16/73/8 32/74/8 31/66/8
f 8/67/8 9/75/8 25/76/8 24/68/8
f 10/77/8 2/78/8 18/79/8 26/80/8
f 9/75/8 10/77/8 26/80/8 25/76/8
f 2/78/8 4/81/8 20/82/8 18/79/8
f 4/81/8 11/83/8 27/84/8 20/82/8
f 16/73/8 3/69/8 19/72/8 32/74/8
f 11/83/8 12/85/8 28/86/8 27/84/8
f 1/70/8 5/87/8 21/88/8 17/71/8
f 12/85/8 13/57/8 29/60/8 28/86/8
f 5/87/8 6/61/8 22/64/8 21/88/8
f 42/89/9 34/90/9 36/91/9 43/92/9
f 33/93/9 37/94/9 48/95/9 35/96/9
f 37/97/9 38/98/9 47/99/9 48/100/9
f 38/101/9 39/102/9 46/103/9 47/104/9
f 39/105/9 40/106/9 45/107/9 46/108/9
f 40/109/9 41/110/9 44/111/9 45/112/9
f 41/113/9 42/114/9 43/115/9 44/116/9
f 26/117/10 18/118/10 34/119/10 42/120/10
f 25/121/11 26/122/11 42/123/11 41/124/11
f 18/125/12 20/126/12 36/127/12 34/128/12
f 20/129/8 27/130/8 43/131/8 36/132/8
f 32/133/13 19/134/13 35/135/13 48/136/13
f 27/137/14 28/138/14 44/139/14 43/140/14
f 17/141/5 21/142/5 37/143/5 33/144/5
f 28/145/15 29/146/15 45/147/15 44/148/15
f 21/149/5 22/150/5 38/151/5 37/152/5
