# Blender v2.79 (sub 0) OBJ File: 'genius1.blend'
# www.blender.org
mtllib genius_verde.mtl
o Verde_Plane.009
v -1.264740 2.357985 -0.021141
v -0.071568 2.357985 -0.546419
v -1.215714 2.357985 -0.321341
v -0.071568 2.357985 -1.214314
v -1.094287 2.357985 -0.021141
v -0.923834 2.357985 -0.021141
v -0.753381 2.357985 -0.021141
v -0.582927 2.357985 -0.021141
v -0.477686 2.357985 -0.317242
v -0.242021 2.357985 -0.500895
v -0.242021 2.357985 -1.214314
v -0.412474 2.357985 -1.161786
v -0.582927 2.357985 -1.091748
v -0.753381 2.357985 -0.983191
v -0.923834 2.357985 -0.839615
v -1.094287 2.357985 -0.601489
v -1.264740 2.357985 -0.021141
v -0.071568 2.357985 -0.546419
v -1.215714 2.357985 -0.321341
v -0.071568 2.357985 -1.214314
v -1.094287 2.357985 -0.021141
v -0.923834 2.357985 -0.021141
v -0.753381 2.357985 -0.021141
v -0.582927 2.357985 -0.021141
v -0.477686 2.357985 -0.317242
v -0.242021 2.357985 -0.500895
v -0.242021 2.357985 -1.214314
v -0.412474 2.357985 -1.161786
v -0.582927 2.357985 -1.091748
v -0.753381 2.357985 -0.983191
v -0.923834 2.357985 -0.839615
v -1.094287 2.357985 -0.601489
v -1.264740 2.412551 -0.021141
v -0.071568 2.412551 -0.546419
v -1.215714 2.412551 -0.321341
v -0.071568 2.412551 -1.214314
v -1.094287 2.412551 -0.021141
v -0.923834 2.412551 -0.021141
v -0.753381 2.412551 -0.021141
v -0.582927 2.412551 -0.021141
v -0.477686 2.412551 -0.317242
v -0.242021 2.412551 -0.500895
v -0.242021 2.412551 -1.214314
v -0.412474 2.412551 -1.161786
v -0.582927 2.412551 -1.091748
v -0.753381 2.412551 -0.983191
v -0.923834 2.412551 -0.839615
v -1.094287 2.412551 -0.601489
vt 0.857143 0.000000
vt 0.857143 1.000000
vt 1.000000 1.000000
vt 1.000000 0.000000
vt 0.000000 0.000000
vt 0.000000 1.000000
vt 0.142857 1.000000
vt 0.142857 0.000000
vt 0.285714 1.000000
vt 0.285714 0.000000
vt 0.428571 1.000000
vt 0.428571 0.000000
vt 0.571429 1.000000
vt 0.571429 0.000000
vt 0.714286 1.000000
vt 0.714286 0.000000
vt 0.571800 0.721383
vt 0.823183 0.721383
vt 0.823183 0.765033
vt 0.571800 0.765033
vt 0.890102 0.672329
vt 0.655840 0.672329
vt 0.655840 0.628679
vt 0.890102 0.628679
vt 0.815127 0.853800
vt 0.571800 0.853800
vt 0.571800 0.810150
vt 0.815127 0.810150
vt 0.602438 0.902854
vt 0.738792 0.902854
vt 0.738792 0.946504
vt 0.602438 0.946504
vt 0.834120 0.716712
vt 0.655840 0.716712
vt 0.655840 0.673062
vt 0.834120 0.673062
vt 0.465350 0.902854
vt 0.601705 0.902854
vt 0.601705 0.946504
vt 0.465350 0.946504
vt 0.892757 0.044017
vt 0.731098 0.044017
vt 0.731098 0.000366
vt 0.892757 0.000366
vt 0.428571 1.000000
vt 0.571429 1.000000
vt 0.428571 0.000000
vt 0.285714 0.000000
vt 0.285714 1.000000
vt 0.571429 0.000000
vt 0.000000 0.000000
vt 0.000000 1.000000
vt 0.142857 1.000000
vt 0.714286 0.000000
vt 1.000000 0.000000
vt 0.857143 0.000000
vt 1.000000 1.000000
vt 0.857143 1.000000
vt 0.714286 1.000000
vt 0.142857 0.000000
vt 0.000366 0.857738
vt 0.036784 0.721383
vt 0.571067 0.721383
vt 0.571067 0.857738
vt 0.000366 0.994825
vt 0.000366 0.858471
vt 0.464617 0.858471
vt 0.240512 0.955607
vt 0.000366 0.720650
vt 0.000366 0.584296
vt 0.655107 0.584296
vt 0.464617 0.720650
vt 0.000366 0.583563
vt 0.000367 0.447208
vt 0.769961 0.447208
vt 0.655107 0.583563
vt 0.000366 0.446475
vt 0.000366 0.310121
vt 0.856802 0.310120
vt 0.769961 0.446475
vt 0.000366 0.243453
vt 0.243012 0.177751
vt 0.920617 0.177751
vt 0.854259 0.309388
vt 0.000366 0.177018
vt 0.161358 0.000366
vt 0.730365 0.044303
vt 0.677972 0.177018
vt 0.770694 0.447208
vt 0.911828 0.447208
vt 0.911828 0.490858
vt 0.770694 0.490858
vt 0.655840 0.584296
vt 0.894846 0.584296
vt 0.894846 0.627946
vt 0.655840 0.627946
vt 0.465350 0.858471
vt 0.999634 0.858471
vt 0.999633 0.902121
vt 0.465350 0.902121
vt 0.875880 0.946504
vt 0.739525 0.946504
vt 0.739525 0.902854
vt 0.875880 0.902854
vt 0.816051 0.809417
vt 0.571800 0.809417
vt 0.571800 0.765766
vt 0.816051 0.765766
vt 0.873780 0.132783
vt 0.731098 0.132783
vt 0.731098 0.089133
vt 0.873780 0.089133
vt 0.770694 0.535975
vt 0.907048 0.535975
vt 0.907048 0.579625
vt 0.770694 0.579625
vt 0.878514 0.088400
vt 0.731098 0.088400
vt 0.731098 0.044750
vt 0.878514 0.044750
vt 0.770694 0.491591
vt 0.907048 0.491591
vt 0.907048 0.535242
vt 0.770694 0.535242
vn 0.0000 -1.0000 0.0000
vn 0.9423 0.0000 0.3349
vn -0.8131 0.0000 -0.5821
vn -0.9869 0.0000 -0.1612
vn 0.0000 0.0000 1.0000
vn -0.6442 0.0000 -0.7648
vn -0.5372 0.0000 -0.8435
vn 0.0000 1.0000 0.0000
vn 0.2580 0.0000 0.9661
vn 0.6147 0.0000 0.7888
vn 1.0000 0.0000 0.0000
vn 0.0000 0.0000 -1.0000
vn -0.9175 0.0000 -0.3977
vn -0.2945 0.0000 -0.9557
vn -0.3801 0.0000 -0.9250
usemtl None
s off
f 10/1/1 11/2/1 4/3/1 2/4/1
f 1/5/1 3/6/1 16/7/1 5/8/1
f 5/8/1 16/7/1 15/9/1 6/10/1
f 6/10/1 15/9/1 14/11/1 7/12/1
f 7/12/1 14/11/1 13/13/1 8/14/1
f 8/14/1 13/13/1 12/15/1 9/16/1
f 9/16/1 12/15/1 11/2/1 10/1/1
f 24/17/2 25/18/2 41/19/2 40/20/2
f 31/21/3 32/22/3 48/23/3 47/24/3
f 19/25/4 17/26/4 33/27/4 35/28/4
f 23/29/5 24/30/5 40/31/5 39/32/5
f 30/33/6 31/34/6 47/35/6 46/36/6
f 22/37/5 23/38/5 39/39/5 38/40/5
f 29/41/7 30/42/7 46/43/7 45/44/7
f 13/13/5 14/11/5 30/45/5 29/46/5
f 6/10/5 7/12/5 23/47/5 22/48/5
f 14/11/5 15/9/5 31/49/5 30/45/5
f 7/12/5 8/14/5 24/50/5 23/47/5
f 3/6/5 1/5/5 17/51/5 19/52/5
f 15/9/5 16/7/5 32/53/5 31/49/5
f 8/14/5 9/16/5 25/54/5 24/50/5
f 10/1/5 2/4/5 18/55/5 26/56/5
f 9/16/5 10/1/5 26/56/5 25/54/5
f 2/4/5 4/3/5 20/57/5 18/55/5
f 4/3/5 11/2/5 27/58/5 20/57/5
f 16/7/5 3/6/5 19/52/5 32/53/5
f 11/2/5 12/15/5 28/59/5 27/58/5
f 1/5/5 5/8/5 21/60/5 17/51/5
f 12/15/5 13/13/5 29/46/5 28/59/5
f 5/8/5 6/10/5 22/48/5 21/60/5
f 42/61/8 34/62/8 36/63/8 43/64/8
f 33/65/8 37/66/8 48/67/8 35/68/8
f 37/69/8 38/70/8 47/71/8 48/72/8
f 38/73/8 39/74/8 46/75/8 47/76/8
f 39/77/8 40/78/8 45/79/8 46/80/8
f 40/81/8 41/82/8 44/83/8 45/84/8
f 41/85/8 42/86/8 43/87/8 44/88/8
f 26/89/9 18/90/9 34/91/9 42/92/9
f 25/93/10 26/94/10 42/95/10 41/96/10
f 18/97/11 20/98/11 36/99/11 34/100/11
f 20/101/12 27/102/12 43/103/12 36/104/12
f 32/105/13 19/106/13 35/107/13 48/108/13
f 27/109/14 28/110/14 44/111/14 43/112/14
f 17/113/5 21/114/5 37/115/5 33/116/5
f 28/117/15 29/118/15 45/119/15 44/120/15
f 21/121/5 22/122/5 38/123/5 37/124/5
