# Blender v2.79 (sub 0) OBJ File: 'genius1.blend'
# www.blender.org
mtllib genius_amarelo.mtl
o Amarelo_Plane.006
v -0.068000 0.000000 1.327873
v -0.592230 0.000000 0.134239
v -0.368157 0.000000 1.278584
v -1.260124 0.000000 0.133653
v -0.067851 0.000000 1.157420
v -0.067701 0.000000 0.986967
v -0.067551 0.000000 0.816514
v -0.067401 0.000000 0.646060
v -0.363410 0.000000 0.540559
v -0.546856 0.000000 0.304733
v -1.260274 0.000000 0.304106
v -1.207896 0.000000 0.474605
v -1.138009 0.000000 0.645120
v -1.029601 0.000000 0.815668
v -0.886175 0.000000 0.986248
v -0.648198 0.000000 1.156910
v -0.068000 0.000000 1.327873
v -0.592230 0.000000 0.134239
v -0.368157 0.000000 1.278584
v -1.260124 0.000000 0.133653
v -0.067851 0.000000 1.157420
v -0.067701 0.000000 0.986967
v -0.067551 0.000000 0.816514
v -0.067401 0.000000 0.646060
v -0.363410 0.000000 0.540559
v -0.546856 0.000000 0.304733
v -1.260274 0.000000 0.304106
v -1.207896 0.000000 0.474605
v -1.138009 0.000000 0.645120
v -1.029601 0.000000 0.815668
v -0.886175 0.000000 0.986248
v -0.648198 0.000000 1.156910
v -0.068000 0.054566 1.327873
v -0.592230 0.054566 0.134239
v -0.368157 0.054566 1.278584
v -1.260124 0.054566 0.133653
v -0.067851 0.054566 1.157420
v -0.067701 0.054566 0.986967
v -0.067551 0.054566 0.816514
v -0.067401 0.054566 0.646060
v -0.363410 0.054566 0.540559
v -0.546856 0.054566 0.304733
v -1.260274 0.054566 0.304106
v -1.207896 0.054566 0.474605
v -1.138009 0.054566 0.645120
v -1.029601 0.054566 0.815668
v -0.886175 0.054566 0.986248
v -0.648198 0.054566 1.156910
vt 0.000219 0.729124
vt 0.565299 0.729319
vt 0.565252 0.864330
vt 0.036231 0.864148
vt 0.000219 0.864769
vt 0.237999 0.903601
vt 0.459898 0.999781
vt 0.000219 0.999781
vt 0.000219 0.593674
vt 0.459897 0.593674
vt 0.648511 0.728685
vt 0.000219 0.728685
vt 0.000219 0.458223
vt 0.648511 0.458223
vt 0.762233 0.593235
vt 0.000219 0.593235
vt 0.000219 0.322773
vt 0.762234 0.322773
vt 0.848219 0.457784
vt 0.000219 0.457784
vt 0.000219 0.187323
vt 0.848219 0.187323
vt 0.903693 0.322334
vt 0.234753 0.270681
vt 0.000219 0.000219
vt 0.669159 0.051872
vt 0.710765 0.186884
vt 0.145686 0.186884
vt 0.632804 0.626176
vt 0.875336 0.626176
vt 0.875336 0.672968
vt 0.632804 0.672968
vt 0.304457 0.646152
vt 0.000154 0.646152
vt 0.000154 0.589451
vt 0.304457 0.589451
vt 0.999958 0.179417
vt 0.000043 0.179417
vt 0.000042 0.000043
vt 0.999958 0.000042
vt 0.827397 0.336646
vt 0.958950 0.336646
vt 0.958950 0.383439
vt 0.827397 0.383439
vt 0.877415 0.094665
vt 0.705412 0.094665
vt 0.705412 0.047872
vt 0.877415 0.047872
vt 0.551723 0.920007
vt 0.683277 0.920007
vt 0.683277 0.966800
vt 0.551723 0.966800
vt 0.861379 0.047165
vt 0.705412 0.047165
vt 0.705412 0.000373
vt 0.861379 0.000373
vt 0.000373 0.919262
vt 0.035507 0.773092
vt 0.550978 0.773092
vt 0.550978 0.919262
vt 0.000154 0.532136
vt 0.000154 0.355013
vt 0.603209 0.355013
vt 0.312099 0.481192
vt 0.000154 0.354706
vt 0.000154 0.177583
vt 0.850653 0.177583
vt 0.603209 0.354706
vt 0.000154 0.177276
vt 0.000154 0.000154
vt 0.999847 0.000154
vt 0.850653 0.177276
vt 0.000373 0.478515
vt 0.000373 0.332344
vt 0.826652 0.332344
vt 0.742869 0.478514
vt 0.000373 0.260918
vt 0.234474 0.190486
vt 0.888220 0.190486
vt 0.824199 0.331599
vt 0.000373 0.189741
vt 0.155695 0.000373
vt 0.704666 0.047472
vt 0.654119 0.189741
vt 0.743614 0.479260
vt 0.879778 0.479260
vt 0.879778 0.526053
vt 0.743614 0.526053
vt 0.705412 0.142948
vt 0.936002 0.142948
vt 0.936002 0.189741
vt 0.705412 0.189741
vt 0.000373 0.920007
vt 0.515843 0.920007
vt 0.515843 0.966800
vt 0.000373 0.966800
vt 0.958950 0.478515
vt 0.827397 0.478515
vt 0.827397 0.431722
vt 0.958950 0.431722
vt 0.999958 0.178738
vt 0.000042 0.178738
vt 0.000042 0.000042
vt 0.999958 0.000042
vt 0.881272 0.577892
vt 0.743614 0.577892
vt 0.743614 0.531100
vt 0.881272 0.531100
vt 0.684022 0.920007
vt 0.815575 0.920007
vt 0.815575 0.966800
vt 0.684022 0.966800
vt 0.885839 0.625430
vt 0.743614 0.625430
vt 0.743614 0.578638
vt 0.885839 0.578638
vt 0.827397 0.384184
vt 0.958950 0.384184
vt 0.958950 0.430977
vt 0.827397 0.430977
vt 0.571429 1.000000
vt 0.428571 1.000000
vt 0.428571 1.000000
vt 0.571429 1.000000
vt 0.285714 0.000000
vt 0.428571 0.000000
vt 0.428571 0.000000
vt 0.285714 0.000000
vt 0.285714 1.000000
vt 0.285714 1.000000
vt 0.571429 0.000000
vt 0.571429 0.000000
vt 0.000000 1.000000
vt 0.000000 0.000000
vt 0.000000 0.000000
vt 0.000000 1.000000
vt 0.142857 1.000000
vt 0.142857 1.000000
vt 0.714286 0.000000
vt 0.714286 0.000000
vt 0.857143 0.000000
vt 1.000000 0.000000
vt 1.000000 0.000000
vt 0.857143 0.000000
vt 1.000000 1.000000
vt 1.000000 1.000000
vt 0.857143 1.000000
vt 0.857143 1.000000
vt 0.714286 1.000000
vt 0.714286 1.000000
vt 0.142857 0.000000
vt 0.142857 0.000000
vn 0.0000 -1.0000 0.0000
vn 0.3357 0.0000 -0.9420
vn -0.5828 0.0000 0.8126
vn -0.1620 0.0000 0.9868
vn 1.0000 0.0000 0.0009
vn -0.7654 0.0000 0.6436
vn -0.8439 0.0000 0.5364
vn 0.0000 1.0000 0.0000
vn 0.9664 0.0000 -0.2572
vn 0.7893 0.0000 -0.6140
vn 0.0009 0.0000 -1.0000
vn -1.0000 0.0000 -0.0009
vn -0.3985 0.0000 0.9172
vn -0.9559 0.0000 0.2937
vn -0.9253 0.0000 0.3792
vn 0.0000 0.0000 1.0000
usemtl None
s off
f 10/1/1 11/2/1 4/3/1 2/4/1
f 1/5/1 3/6/1 16/7/1 5/8/1
f 5/9/1 16/10/1 15/11/1 6/12/1
f 6/13/1 15/14/1 14/15/1 7/16/1
f 7/17/1 14/18/1 13/19/1 8/20/1
f 8/21/1 13/22/1 12/23/1 9/24/1
f 9/25/1 12/26/1 11/27/1 10/28/1
f 24/29/2 25/30/2 41/31/2 40/32/2
f 31/33/3 32/34/3 48/35/3 47/36/3
f 19/37/4 17/38/4 33/39/4 35/40/4
f 23/41/5 24/42/5 40/43/5 39/44/5
f 30/45/6 31/46/6 47/47/6 46/48/6
f 22/49/5 23/50/5 39/51/5 38/52/5
f 29/53/7 30/54/7 46/55/7 45/56/7
f 42/57/8 34/58/8 36/59/8 43/60/8
f 33/61/8 37/62/8 48/63/8 35/64/8
f 37/65/8 38/66/8 47/67/8 48/68/8
f 38/69/8 39/70/8 46/71/8 47/72/8
f 39/73/8 40/74/8 45/75/8 46/76/8
f 40/77/8 41/78/8 44/79/8 45/80/8
f 41/81/8 42/82/8 43/83/8 44/84/8
f 26/85/9 18/86/9 34/87/9 42/88/9
f 25/89/10 26/90/10 42/91/10 41/92/10
f 18/93/11 20/94/11 36/95/11 34/96/11
f 20/97/12 27/98/12 43/99/12 36/100/12
f 32/101/13 19/102/13 35/103/13 48/104/13
f 27/105/14 28/106/14 44/107/14 43/108/14
f 17/109/5 21/110/5 37/111/5 33/112/5
f 28/113/15 29/114/15 45/115/15 44/116/15
f 21/117/5 22/118/5 38/119/5 37/120/5
usemtl None_NONE
f 13/121/16 14/122/16 30/123/16 29/124/16
f 6/125/16 7/126/16 23/127/16 22/128/16
f 14/122/16 15/129/16 31/130/16 30/123/16
f 7/126/16 8/131/16 24/132/16 23/127/16
f 3/133/16 1/134/16 17/135/16 19/136/16
f 15/129/16 16/137/16 32/138/16 31/130/16
f 8/131/16 9/139/16 25/140/16 24/132/16
f 10/141/16 2/142/16 18/143/16 26/144/16
f 9/139/16 10/141/16 26/144/16 25/140/16
f 2/142/16 4/145/16 20/146/16 18/143/16
f 4/145/16 11/147/16 27/148/16 20/146/16
f 16/137/16 3/133/16 19/136/16 32/138/16
f 11/147/16 12/149/16 28/150/16 27/148/16
f 1/134/16 5/151/16 21/152/16 17/135/16
f 12/149/16 13/121/16 29/124/16 28/150/16
f 5/151/16 6/125/16 22/128/16 21/152/16
