# Blender v2.79 (sub 0) OBJ File: ''
# www.blender.org
o Vermelho_Plane.008
v 0.546856 2.357985 -0.195810
v 1.260274 2.357985 -0.195183
v 1.260124 2.357985 -0.024730
v 0.592230 2.357985 -0.025317
v 0.068001 2.357985 -1.218951
v 0.368157 2.357985 -1.169661
v 0.648199 2.357985 -1.047988
v 0.067851 2.357985 -1.048498
v 0.886175 2.357985 -0.877326
v 0.067701 2.357985 -0.878045
v 1.029601 2.357985 -0.706746
v 0.067551 2.357985 -0.707592
v 1.138009 2.357985 -0.536198
v 0.067402 2.357985 -0.537138
v 1.207896 2.357985 -0.365683
v 0.363410 2.357985 -0.431637
v 0.067402 2.357985 -0.537138
v 0.363410 2.357985 -0.431637
v 0.363410 2.412551 -0.431637
v 0.067402 2.412551 -0.537138
v 0.886175 2.357985 -0.877326
v 0.648199 2.357985 -1.047988
v 0.648199 2.412551 -1.047988
v 0.886175 2.412551 -0.877326
v 0.368157 2.357985 -1.169661
v 0.068001 2.357985 -1.218951
v 0.068001 2.412551 -1.218951
v 0.368157 2.412551 -1.169661
v 0.067551 2.357985 -0.707592
v 0.067551 2.412551 -0.707592
v 1.029601 2.357985 -0.706746
v 1.029601 2.412551 -0.706746
v 0.067701 2.357985 -0.878045
v 0.067701 2.412551 -0.878045
v 1.138009 2.357985 -0.536198
v 1.138009 2.412551 -0.536198
v 0.592230 2.357985 -0.025317
v 0.546856 2.357985 -0.195810
v 1.260124 2.357985 -0.024730
v 1.260274 2.357985 -0.195183
v 1.207896 2.357985 -0.365683
v 0.067851 2.357985 -1.048498
v 0.546856 2.412551 -0.195810
v 0.592230 2.412551 -0.025317
v 1.260124 2.412551 -0.024730
v 1.260274 2.412551 -0.195183
v 0.067851 2.412551 -1.048498
v 1.207896 2.412551 -0.365683
vt 0.857143 1.000000
vt 1.000000 0.000000
vt 0.857143 0.000000
vt 0.000000 1.000000
vt 0.142857 0.000000
vt 0.000000 0.000000
vt 0.142857 1.000000
vt 0.285714 0.000000
vt 0.285714 1.000000
vt 0.428571 0.000000
vt 0.428571 1.000000
vt 0.571429 0.000000
vt 0.571429 1.000000
vt 0.714286 0.000000
vt 0.714286 1.000000
vt 0.823188 0.721258
vt 0.571789 0.764911
vt 0.571789 0.721258
vt 0.655834 0.672201
vt 0.890111 0.628548
vt 0.890111 0.672201
vt 0.571789 0.853621
vt 0.815131 0.809968
vt 0.815131 0.853621
vt 0.571429 0.000000
vt 0.428571 0.000000
vt 0.428571 0.000000
vt 0.655834 0.716556
vt 0.834126 0.672903
vt 0.834126 0.716556
vt 0.285714 0.000000
vt 0.285714 0.000000
vt 0.731096 0.044004
vt 0.892766 0.000351
vt 0.892766 0.044004
vt 0.428571 1.000000
vt 0.571429 1.000000
vt 0.285714 1.000000
vt 0.000000 0.000000
vt 0.000000 1.000000
vt 0.142857 1.000000
vt 0.714286 0.000000
vt 1.000000 0.000000
vt 0.857143 0.000000
vt 1.000000 1.000000
vt 1.000000 1.000000
vt 0.857143 1.000000
vt 0.714286 1.000000
vt 0.142857 0.000000
vt 0.036770 0.721258
vt 0.571087 0.857621
vt 0.000351 0.857621
vt 0.000351 0.858323
vt 0.240511 0.955465
vt 0.000351 0.994686
vt 0.000351 0.584193
vt 0.464631 0.720556
vt 0.000351 0.720556
vt 0.000351 0.447128
vt 0.655132 0.583491
vt 0.000351 0.583491
vt 0.000351 0.310062
vt 0.769993 0.446425
vt 0.000351 0.446426
vt 0.243011 0.177716
vt 0.854297 0.309360
vt 0.000351 0.243422
vt 0.161352 0.000351
vt 0.677999 0.177013
vt 0.000351 0.177013
vt 0.911837 0.447128
vt 0.770695 0.490781
vt 0.770695 0.447128
vt 0.894855 0.584193
vt 0.655834 0.627846
vt 0.655834 0.584193
vt 0.999649 0.858323
vt 0.465333 0.901976
vt 0.465333 0.858323
vt 0.465333 0.946331
vt 0.601696 0.902678
vt 0.601696 0.946331
vt 0.571789 0.809266
vt 0.816055 0.765613
vt 0.816055 0.809266
vt 0.731096 0.132714
vt 0.873788 0.089061
vt 0.873788 0.132714
vt 0.907058 0.491483
vt 0.770695 0.535136
vt 0.770695 0.491483
vt 0.731096 0.088359
vt 0.878522 0.044706
vt 0.878522 0.088359
vt 0.907058 0.535838
vt 0.770695 0.579491
vt 0.770695 0.535838
vt 0.823188 0.764911
vt 0.655834 0.628548
vt 0.571789 0.809968
vt 0.571429 0.000000
vt 0.655834 0.672903
vt 0.731097 0.000351
vt 0.571087 0.721258
vt 0.464631 0.858323
vt 0.655132 0.584193
vt 0.769993 0.447128
vt 0.856839 0.310062
vt 0.920658 0.177715
vt 0.730394 0.044290
vt 0.911837 0.490781
vt 0.894855 0.627846
vt 0.999649 0.901976
vt 0.465333 0.902678
vt 0.571789 0.765613
vt 0.731097 0.089061
vt 0.907058 0.535136
vt 0.731096 0.044706
vt 0.907058 0.579491
vn 0.0000 -1.0000 0.0000
vn -0.3357 -0.0000 0.9420
vn 0.5828 0.0000 -0.8126
vn 0.1620 0.0000 -0.9868
vn -1.0000 0.0000 -0.0009
vn 0.7654 0.0000 -0.6436
vn 0.8439 0.0000 -0.5364
vn 0.0000 0.0000 1.0000
vn 0.0000 0.0000 0.0000
vn -0.0003 -0.0000 1.0000
vn 0.0000 1.0000 0.0000
vn -0.9664 0.0000 0.2572
vn -0.7893 -0.0000 0.6140
vn -0.0009 -0.0000 1.0000
vn 1.0000 0.0000 0.0009
vn 0.3985 0.0000 -0.9172
vn 0.9559 0.0000 -0.2937
vn 0.9253 -0.0000 -0.3792
s 1
f 2/1/1 4/2/1 1/3/1
f 6/4/1 8/5/1 5/6/1
f 7/7/1 10/8/1 8/5/1
f 9/9/1 12/10/1 10/8/1
f 11/11/1 14/12/1 12/10/1
f 13/13/1 16/14/1 14/12/1
f 15/15/1 1/3/1 16/14/1
f 18/16/2 20/17/2 17/18/2
f 22/19/3 24/20/3 21/21/3
f 26/22/4 28/23/4 25/24/4
f 17/25/5 30/26/5 29/27/5
f 21/28/6 32/29/6 31/30/6
f 29/27/5 34/31/5 33/32/5
f 31/33/7 36/34/7 35/35/7
f 13/13/8 31/36/8 35/37/8
f 10/8/9 29/27/9 33/32/9
f 11/11/8 21/38/8 31/36/8
f 12/10/9 17/25/9 29/27/9
f 6/4/8 26/39/9 25/40/8
f 9/9/8 22/41/8 21/38/8
f 14/12/9 18/42/8 17/25/9
f 1/3/8 37/43/10 38/44/8
f 16/14/8 38/44/8 18/42/8
f 4/2/8 39/45/9 37/43/10
f 3/46/9 40/47/9 39/45/9
f 7/7/8 25/40/8 22/41/8
f 2/1/9 41/48/8 40/47/9
f 5/6/9 42/49/9 26/39/9
f 15/15/8 35/37/8 41/48/8
f 8/5/9 33/32/9 42/49/9
f 44/50/11 46/51/11 43/52/11
f 47/53/11 28/54/11 27/55/11
f 34/56/11 23/57/11 47/58/11
f 30/59/11 24/60/11 34/61/11
f 20/62/11 32/63/11 30/64/11
f 19/65/11 36/66/11 20/67/11
f 43/68/11 48/69/11 19/70/11
f 37/71/12 43/72/12 38/73/12
f 38/74/13 19/75/13 18/76/13
f 39/77/9 44/78/14 37/79/10
f 40/80/15 45/81/15 39/82/15
f 25/83/16 23/84/16 22/85/16
f 41/86/17 46/87/17 40/88/17
f 42/89/5 27/90/5 26/91/5
f 35/92/18 48/93/18 41/94/18
f 33/95/5 47/96/5 42/97/5
f 2/1/1 3/46/1 4/2/1
f 6/4/1 7/7/1 8/5/1
f 7/7/1 9/9/1 10/8/1
f 9/9/1 11/11/1 12/10/1
f 11/11/1 13/13/1 14/12/1
f 13/13/1 15/15/1 16/14/1
f 15/15/1 2/1/1 1/3/1
f 18/16/2 19/98/2 20/17/2
f 22/19/3 23/99/3 24/20/3
f 26/22/4 27/100/4 28/23/4
f 17/25/5 20/101/5 30/26/5
f 21/28/6 24/102/6 32/29/6
f 29/27/5 30/26/5 34/31/5
f 31/33/7 32/103/7 36/34/7
f 13/13/8 11/11/8 31/36/8
f 10/8/9 12/10/9 29/27/9
f 11/11/8 9/9/8 21/38/8
f 12/10/9 14/12/9 17/25/9
f 6/4/8 5/6/9 26/39/9
f 9/9/8 7/7/8 22/41/8
f 14/12/9 16/14/8 18/42/8
f 1/3/8 4/2/8 37/43/10
f 16/14/8 1/3/8 38/44/8
f 4/2/8 3/46/9 39/45/9
f 3/46/9 2/1/9 40/47/9
f 7/7/8 6/4/8 25/40/8
f 2/1/9 15/15/8 41/48/8
f 5/6/9 8/5/9 42/49/9
f 15/15/8 13/13/8 35/37/8
f 8/5/9 10/8/9 33/32/9
f 44/50/11 45/104/11 46/51/11
f 47/53/11 23/105/11 28/54/11
f 34/56/11 24/106/11 23/57/11
f 30/59/11 32/107/11 24/60/11
f 20/62/11 36/108/11 32/63/11
f 19/65/11 48/109/11 36/66/11
f 43/68/11 46/110/11 48/69/11
f 37/71/12 44/111/12 43/72/12
f 38/74/13 43/112/13 19/75/13
f 39/77/9 45/113/14 44/78/14
f 40/80/15 46/114/15 45/81/15
f 25/83/16 28/115/16 23/84/16
f 41/86/17 48/116/17 46/87/17
f 42/89/5 47/117/5 27/90/5
f 35/92/18 36/118/18 48/93/18
f 33/95/5 34/119/5 47/96/5
