# Blender v2.79 (sub 0) OBJ File: ''
# www.blender.org
o Amarelo_Plane.006
v -0.546856 2.357985 0.304733
v -1.260274 2.357985 0.304106
v -1.260124 2.357985 0.133653
v -0.592230 2.357985 0.134239
v -0.068000 2.357985 1.327873
v -0.368157 2.357985 1.278584
v -0.648198 2.357985 1.156910
v -0.067851 2.357985 1.157420
v -0.886175 2.357985 0.986248
v -0.067701 2.357985 0.986967
v -1.029601 2.357985 0.815668
v -0.067551 2.357985 0.816514
v -1.138009 2.357985 0.645120
v -0.067401 2.357985 0.646060
v -1.207896 2.357985 0.474605
v -0.363410 2.357985 0.540559
v -0.067401 2.357985 0.646060
v -0.363410 2.357985 0.540559
v -0.363410 2.412551 0.540559
v -0.067401 2.412551 0.646060
v -0.886175 2.357985 0.986248
v -0.648198 2.357985 1.156910
v -0.648198 2.412551 1.156910
v -0.886175 2.412551 0.986248
v -0.368157 2.357985 1.278584
v -0.068000 2.357985 1.327873
v -0.068000 2.412551 1.327873
v -0.368157 2.412551 1.278584
v -0.067551 2.357985 0.816514
v -0.067551 2.412551 0.816514
v -1.029601 2.357985 0.815668
v -1.029601 2.412551 0.815668
v -0.067701 2.357985 0.986967
v -0.067701 2.412551 0.986967
v -1.138009 2.357985 0.645120
v -1.138009 2.412551 0.645120
v -0.546856 2.412551 0.304733
v -0.592230 2.412551 0.134239
v -1.260124 2.412551 0.133653
v -1.260274 2.412551 0.304106
v -0.067851 2.412551 1.157420
v -1.207896 2.412551 0.474605
v -0.546856 2.357985 0.304733
v -0.592230 2.357985 0.134239
v -1.260124 2.357985 0.133653
v -1.260274 2.357985 0.304106
v -1.207896 2.357985 0.474605
v -0.067851 2.357985 1.157420
vt 0.565299 0.729319
vt 0.036231 0.864148
vt 0.000219 0.729124
vt 0.237999 0.903601
vt 0.000219 0.999781
vt 0.000219 0.864769
vt 0.459897 0.593674
vt 0.000219 0.728685
vt 0.000219 0.593674
vt 0.648511 0.458223
vt 0.000219 0.593235
vt 0.000219 0.458223
vt 0.762234 0.322773
vt 0.000219 0.457784
vt 0.000219 0.322773
vt 0.848219 0.187323
vt 0.234753 0.270681
vt 0.000219 0.187323
vt 0.669159 0.051872
vt 0.145686 0.186884
vt 0.000219 0.000219
vt 0.875336 0.626176
vt 0.632804 0.672968
vt 0.632804 0.626176
vt 0.000154 0.646152
vt 0.304457 0.589451
vt 0.304457 0.646152
vt 0.000043 0.179417
vt 0.999958 0.000042
vt 0.999958 0.179417
vt 0.958950 0.336646
vt 0.827397 0.383439
vt 0.827397 0.336646
vt 0.705412 0.094665
vt 0.877415 0.047872
vt 0.877415 0.094665
vt 0.683277 0.920007
vt 0.551723 0.966800
vt 0.551723 0.920007
vt 0.705412 0.047165
vt 0.861379 0.000373
vt 0.861379 0.047165
vt 0.035507 0.773092
vt 0.550978 0.919262
vt 0.000373 0.919262
vt 0.000154 0.355013
vt 0.312099 0.481192
vt 0.000154 0.532136
vt 0.000154 0.177583
vt 0.603209 0.354706
vt 0.000154 0.354706
vt 0.000154 0.000154
vt 0.850653 0.177276
vt 0.000154 0.177276
vt 0.000373 0.332344
vt 0.742869 0.478514
vt 0.000373 0.478515
vt 0.234474 0.190486
vt 0.824199 0.331599
vt 0.000373 0.260918
vt 0.155695 0.000373
vt 0.654119 0.189741
vt 0.000373 0.189741
vt 0.879778 0.479260
vt 0.743614 0.526053
vt 0.743614 0.479260
vt 0.936002 0.142948
vt 0.705412 0.189741
vt 0.705412 0.142948
vt 0.515843 0.920007
vt 0.000373 0.966800
vt 0.000373 0.920007
vt 0.827397 0.478515
vt 0.958950 0.431722
vt 0.958950 0.478515
vt 0.000042 0.178738
vt 0.999958 0.000042
vt 0.999958 0.178738
vt 0.743614 0.577892
vt 0.881272 0.531100
vt 0.881272 0.577892
vt 0.815575 0.920007
vt 0.684022 0.966800
vt 0.684022 0.920007
vt 0.743614 0.625430
vt 0.885839 0.578638
vt 0.885839 0.625430
vt 0.958950 0.384184
vt 0.827397 0.430977
vt 0.827397 0.384184
vt 0.565252 0.864330
vt 0.459898 0.999781
vt 0.648511 0.728685
vt 0.762233 0.593235
vt 0.848219 0.457784
vt 0.903693 0.322334
vt 0.710765 0.186884
vt 0.875336 0.672968
vt 0.000154 0.589451
vt 0.000042 0.000043
vt 0.958950 0.383439
vt 0.705412 0.047872
vt 0.683277 0.966800
vt 0.705412 0.000373
vt 0.550978 0.773092
vt 0.603209 0.355013
vt 0.850653 0.177583
vt 0.999847 0.000154
vt 0.826652 0.332344
vt 0.888220 0.190486
vt 0.704666 0.047472
vt 0.879778 0.526053
vt 0.936002 0.189741
vt 0.515843 0.966800
vt 0.827397 0.431722
vt 0.000042 0.000042
vt 0.743614 0.531100
vt 0.815575 0.966800
vt 0.743614 0.578638
vt 0.958950 0.430977
vt 0.571429 1.000000
vt 0.428571 1.000000
vt 0.571429 1.000000
vt 0.285714 0.000000
vt 0.428571 0.000000
vt 0.285714 0.000000
vt 0.428571 1.000000
vt 0.285714 1.000000
vt 0.428571 0.000000
vt 0.571429 0.000000
vt 0.000000 1.000000
vt 0.000000 0.000000
vt 0.000000 1.000000
vt 0.285714 1.000000
vt 0.142857 1.000000
vt 0.571429 0.000000
vt 0.714286 0.000000
vt 0.857143 0.000000
vt 1.000000 0.000000
vt 0.857143 0.000000
vt 0.714286 0.000000
vt 1.000000 0.000000
vt 1.000000 1.000000
vt 1.000000 1.000000
vt 0.857143 1.000000
vt 0.142857 1.000000
vt 0.857143 1.000000
vt 0.714286 1.000000
vt 0.000000 0.000000
vt 0.142857 0.000000
vt 0.714286 1.000000
vt 0.142857 0.000000
vn 0.0000 -1.0000 -0.0000
vn 0.3357 0.0000 -0.9420
vn -0.5828 0.0000 0.8126
vn -0.1620 0.0000 0.9868
vn 1.0000 0.0000 0.0009
vn -0.7654 0.0000 0.6436
vn -0.8439 0.0000 0.5364
vn 0.0000 1.0000 -0.0000
vn 0.9664 -0.0000 -0.2572
vn 0.7893 0.0000 -0.6140
vn 0.0009 0.0000 -1.0000
vn -1.0000 0.0000 -0.0009
vn -0.3985 0.0000 0.9172
vn -0.9559 -0.0000 0.2937
vn -0.9253 -0.0000 0.3792
vn 0.0000 0.0000 1.0000
vn 0.0000 0.0000 0.0000
s 1
f 2/1/1 4/2/1 1/3/1
f 6/4/1 8/5/1 5/6/1
f 7/7/1 10/8/1 8/9/1
f 9/10/1 12/11/1 10/12/1
f 11/13/1 14/14/1 12/15/1
f 13/16/1 16/17/1 14/18/1
f 15/19/1 1/20/1 16/21/1
f 18/22/2 20/23/2 17/24/2
f 22/25/3 24/26/3 21/27/3
f 26/28/4 28/29/4 25/30/4
f 17/31/5 30/32/5 29/33/5
f 21/34/6 32/35/6 31/36/6
f 29/37/5 34/38/5 33/39/5
f 31/40/7 36/41/7 35/42/7
f 38/43/8 40/44/8 37/45/8
f 41/46/8 28/47/8 27/48/8
f 34/49/8 23/50/8 41/51/8
f 30/52/8 24/53/8 34/54/8
f 20/55/8 32/56/8 30/57/8
f 19/58/8 36/59/8 20/60/8
f 37/61/8 42/62/8 19/63/8
f 44/64/9 37/65/9 43/66/9
f 43/67/10 19/68/10 18/69/10
f 45/70/11 38/71/11 44/72/11
f 46/73/12 39/74/12 45/75/12
f 25/76/13 23/77/13 22/78/13
f 47/79/14 40/80/14 46/81/14
f 48/82/5 27/83/5 26/84/5
f 35/85/15 42/86/15 47/87/15
f 33/88/5 41/89/5 48/90/5
f 2/1/1 3/91/1 4/2/1
f 6/4/1 7/92/1 8/5/1
f 7/7/1 9/93/1 10/8/1
f 9/10/1 11/94/1 12/11/1
f 11/13/1 13/95/1 14/14/1
f 13/16/1 15/96/1 16/17/1
f 15/19/1 2/97/1 1/20/1
f 18/22/2 19/98/2 20/23/2
f 22/25/3 23/99/3 24/26/3
f 26/28/4 27/100/4 28/29/4
f 17/31/5 20/101/5 30/32/5
f 21/34/6 24/102/6 32/35/6
f 29/37/5 30/103/5 34/38/5
f 31/40/7 32/104/7 36/41/7
f 38/43/8 39/105/8 40/44/8
f 41/46/8 23/106/8 28/47/8
f 34/49/8 24/107/8 23/50/8
f 30/52/8 32/108/8 24/53/8
f 20/55/8 36/109/8 32/56/8
f 19/58/8 42/110/8 36/59/8
f 37/61/8 40/111/8 42/62/8
f 44/64/9 38/112/9 37/65/9
f 43/67/10 37/113/10 19/68/10
f 45/70/11 39/114/11 38/71/11
f 46/73/12 40/115/12 39/74/12
f 25/76/13 28/116/13 23/77/13
f 47/79/14 42/117/14 40/80/14
f 48/82/5 41/118/5 27/83/5
f 35/85/15 36/119/15 42/86/15
f 33/88/5 34/120/5 41/89/5
f 13/121/16 31/122/16 35/123/16
f 10/124/17 29/125/17 33/126/17
f 11/127/16 21/128/16 31/122/16
f 12/129/17 17/130/17 29/125/17
f 6/131/16 26/132/17 25/133/16
f 9/134/16 22/135/16 21/128/16
f 14/136/17 18/137/16 17/130/17
f 1/138/16 44/139/16 43/140/16
f 16/141/16 43/140/16 18/137/16
f 4/142/16 45/143/17 44/139/16
f 3/144/17 46/145/17 45/143/17
f 7/146/16 25/133/16 22/135/16
f 2/147/17 47/148/16 46/145/17
f 5/149/17 48/150/17 26/132/17
f 15/151/16 35/123/16 47/148/16
f 8/152/17 33/126/17 48/150/17
f 13/121/16 11/127/16 31/122/16
f 10/124/17 12/129/17 29/125/17
f 11/127/16 9/134/16 21/128/16
f 12/129/17 14/136/17 17/130/17
f 6/131/16 5/149/17 26/132/17
f 9/134/16 7/146/16 22/135/16
f 14/136/17 16/141/16 18/137/16
f 1/138/16 4/142/16 44/139/16
f 16/141/16 1/138/16 43/140/16
f 4/142/16 3/144/17 45/143/17
f 3/144/17 2/147/17 46/145/17
f 7/146/16 6/131/16 25/133/16
f 2/147/17 15/151/16 47/148/16
f 5/149/17 8/152/17 48/150/17
f 15/151/16 13/121/16 35/123/16
f 8/152/17 10/124/17 33/126/17
